<svg width="46" height="33" viewBox="0 0 46 33" fill="none" xmlns="http://www.w3.org/2000/svg">
<path d="M0 16.095C0 18.2839 0.600396 20.3763 1.80119 22.372C3.00198 24.3678 4.59303 26.0739 6.57434 27.4903C8.55564 28.9066 10.9572 30.0547 13.7791 30.9346C16.601 31.8144 19.5129 32.2329 22.5149 32.19C25.5769 32.19 28.5038 31.7715 31.2956 30.9346C34.0875 30.0976 36.4741 28.9495 38.4554 27.4903C40.4367 26.031 42.0277 24.3249 43.2285 22.372C44.4293 20.4192 45.0297 18.3268 45.0297 16.095C45.0297 13.8632 44.4293 11.7815 43.2285 9.85014C42.0277 7.91874 40.4367 6.20194 38.4554 4.69974C36.4741 3.19754 34.0875 2.06016 31.2956 1.2876C28.5038 0.51504 25.5769 0.08584 22.5149 0C19.4528 0 16.5409 0.4292 13.7791 1.2876C11.0173 2.146 8.61568 3.28338 6.57434 4.69974C4.53299 6.1161 2.94194 7.8329 1.80119 9.85014C0.660436 11.8674 0.0600396 13.949 0 16.095ZM5.62871 16.095C5.62871 13.9061 6.37921 11.8888 7.8802 10.0433C9.38119 8.19772 11.4375 6.73844 14.0493 5.66544C16.661 4.59244 19.4829 4.04521 22.5149 4.02375C25.5469 4.00229 28.3687 4.54952 30.9804 5.66544C33.5922 6.78136 35.6485 8.24064 37.1495 10.0433C38.6505 11.8459 39.401 13.8632 39.401 16.095C39.401 18.3268 38.6505 20.3548 37.1495 22.1789C35.6485 24.003 33.5922 25.4623 30.9804 26.5567C28.3687 27.6512 25.5469 28.1877 22.5149 28.1662C19.4829 28.1448 16.661 27.6083 14.0493 26.5567C11.4375 25.5052 9.38119 24.0459 7.8802 22.1789C6.37921 20.3119 5.62871 18.2839 5.62871 16.095ZM22.5149 26.1705C25.0665 26.1705 27.4231 25.7198 29.5845 24.8185C31.7459 23.9172 33.4571 22.6939 34.7179 21.1488C35.9787 19.6037 36.6091 17.9191 36.6091 16.095C36.6091 14.2709 35.9787 12.597 34.7179 11.0734C33.4571 9.5497 31.7459 8.32648 29.5845 7.4037C27.4231 6.48092 25.0665 6.03026 22.5149 6.05172V26.1705Z" fill="#662E2E"/>
</svg>
